GIL12_slow4_RRA_states
nRows=8
nColumns=47

# SIMM Motion File Header:
name GIL12_slow4_RRA_states
datacolumns 47
datarows 8
otherdata 1
range 0.91233000000000053000 0.91583000000000048000
endheader
time	pelvis_tx	pelvis_ty	pelvis_tz	pelvis_tilt	pelvis_list	pelvis_rotation	hip_flexion_r	hip_adduction_r	hip_rotation_r	knee_angle_r	ankle_angle_r	subtalar_angle_r	mtp_angle_r	hip_flexion_l	hip_adduction_l	hip_rotation_l	knee_angle_l	ankle_angle_l	subtalar_angle_l	mtp_angle_l	lumbar_extension	lumbar_bending	lumbar_rotation	pelvis_tx_u	pelvis_ty_u	pelvis_tz_u	pelvis_tilt_u	pelvis_list_u	pelvis_rotation_u	hip_flexion_r_u	hip_adduction_r_u	hip_rotation_r_u	knee_angle_r_u	ankle_angle_r_u	subtalar_angle_r_u	mtp_angle_r_u	hip_flexion_l_u	hip_adduction_l_u	hip_rotation_l_u	knee_angle_l_u	ankle_angle_l_u	subtalar_angle_l_u	mtp_angle_l_u	lumbar_extension_u	lumbar_bending_u	lumbar_rotation_u
      0.91233000000000053000	     -1.13813298568472470000	      0.66060579787721152000	      0.27372714231648670000	      7.00391286869211880000	      2.66224449854428790000	     -2.97485591930394430000	    -21.11785490224234600000	     -0.82461433123025563000	    -13.51079721978341700000	    -18.36280885161919900000	     20.00593323781976800000	     -0.00000000000038369476	      0.00000000000054924767	     16.88133902782140400000	      5.78405925941749910000	     -1.85611058714060470000	     -8.15968333789927410000	    -12.32537314663354200000	      0.00000000000001111105	      0.00000000000000109958	    -27.39424436987651000000	     -5.39910479888637610000	      6.57148193795391310000	      0.80802036036696967000	      0.07208963496760934000	     -0.09973046433923640800	    -37.01157546835246100000	     24.95268068120673300000	     28.93511885075380300000	      4.37960794577284580000	    -32.80112609279427700000	      0.93055963649533036000	    -51.75828269853313700000	    -80.77955009579595500000	     -0.00000000000159120077	      0.00000000000230864238	     16.86475849928762100000	     44.67814803987488400000	     24.91314914476809900000	    -76.91667909339965100000	    -24.37193440582203900000	      0.00000000000003656817	      0.00000000000011097875	     46.08659341366036000000	    -12.87158798620241700000	    -38.28563305415858800000
      0.91283000000000047000	     -1.13772889524422880000	      0.66064208486435871000	      0.27367730568045218000	      6.98539794860717400000	      2.67468846243822610000	     -2.96042831619114910000	    -21.11557697739709400000	     -0.84102774730689966000	    -13.51030397883675600000	    -18.38878932725005900000	     19.96530072394328300000	     -0.00000000000038448315	      0.00000000000055037662	     16.88970278963717300000	      5.80630770404331380000	     -1.84393484814162110000	     -8.19807510015261090000	    -12.33718559245625800000	      0.00000000000001112529	      0.00000000000000115499	    -27.37114134396224700000	     -5.40552482808726430000	      6.55246818667479760000	      0.80834107902879926000	      0.07305724748073377800	     -0.09961443032693337300	    -37.04779478701608000000	     24.82286192355658000000	     28.77423325091258400000	      4.73235602031100730000	    -32.85280258621724400000	      1.04209793659936500000	    -52.16411153635770900000	    -81.75159937489392800000	     -0.00000000000157083458	      0.00000000000223369601	     16.58905487318865100000	     44.31504682570916000000	     23.78863743727449200000	    -76.64850914870908100000	    -22.87903974776291300000	      0.00000000000001923456	      0.00000000000010720125	     46.32522036031750200000	    -12.80893073945396700000	    -37.76820927258891200000
      0.91333000000000053000	     -1.13732464493698030000	      0.66067885407532456000	      0.27362752952132441000	      6.96686538600275360000	      2.68706706886002870000	     -2.94608274208852670000	    -21.11312228215771500000	     -0.85746742063347003000	    -13.50975544242643500000	    -18.41497345256688700000	     19.92418030408501300000	     -0.00000000000038526691	      0.00000000000055149161	     16.89792684958506500000	      5.82837376072229140000	     -1.83232309414516910000	     -8.23632995145280590000	    -12.34825317323951000000	      0.00000000000001112265	      0.00000000000000121423	    -27.34791944392134900000	     -5.41191414950446340000	      6.53371487750109290000	      0.80865980946914306000	      0.07401856276728380200	     -0.09948858571975237300	    -37.08214146852257200000	     24.69129391354739800000	     28.60701175550091300000	      5.08668802725298530000	    -32.90620012213181400000	      1.15171237367099380000	    -52.57287630361599900000	    -82.73165209424641400000	     -0.00000000000156997405	      0.00000000000223025131	     16.30595310596697400000	     43.94867342423799500000	     22.65726032573861900000	    -76.36896699935249400000	    -21.39206502505768600000	     -0.00000000000002998360	      0.00000000000012850348	     46.56208052353651500000	    -12.74879302536030000000	    -37.24389341659033200000
      0.91383000000000048000	     -1.13692023578532450000	      0.66071610239695300000	      0.27357781871834685000	      6.94831612004329550000	      2.69937947325153350000	     -2.93182234853549730000	    -21.11049002363675300000	     -0.87393424038078016000	    -13.50915259785366200000	    -18.44136269375033500000	     19.88256773009942400000	     -0.00000000000038605631	      0.00000000000055261966	     16.90600751520735300000	      5.85025585399284420000	     -1.82127866781968790000	     -8.27444216538275510000	    -12.35857871301949200000	      0.00000000000001110434	      0.00000000000000127695	    -27.32457956808515200000	     -5.41827404176100740000	      6.51522541298757130000	      0.80897643603575597000	      0.07497369597779353400	     -0.09935299988032921000	    -37.11461065227938900000	     24.55802771513197400000	     28.43352603901842100000	      5.44261395107834560000	    -32.96135550423273500000	      1.25933797338905310000	    -52.98458178453448400000	    -83.71975251217823200000	     -0.00000000000156543464	      0.00000000000222945294	     16.01548664839418700000	     43.57916015959875000000	     21.51940432910065600000	    -76.07801558352059600000	    -19.91142239850752200000	     -0.00000000000005906727	      0.00000000000011654430	     46.79711245470549800000	    -12.69117944530428200000	    -36.71286011866036600000
      0.91433000000000053000	     -1.13651566887130230000	      0.66075382676115879000	      0.27352817813217140000	      6.92975108920298320000	      2.71162482323020230000	     -2.91765024751978560000	    -21.10767940103404400000	     -0.89042907627869361000	    -13.50849644818585700000	    -18.46795852528351400000	     19.84045921052272400000	     -0.00000000000038683980	      0.00000000000055372578	     16.91394111503612400000	      5.87195242207024040000	     -1.81080470643451450000	     -8.31240606403036960000	    -12.36816570450133700000	      0.00000000000001107202	      0.00000000000000133932	    -27.30112264670351200000	     -5.42460575130030430000	      6.49700310678338240000	      0.80929083994894557000	      0.07592276731451366700	     -0.09920775009421530000	    -37.14519667616571000000	     24.42312183865163900000	     28.25385183371472000000	      5.80014245225061930000	    -33.01831186161393800000	      1.36490079820586100000	    -53.39923231198101000000	    -84.71589648484840000000	     -0.00000000000155169302	      0.00000000000216924052	     15.71769354425624600000	     43.20665496612675600000	     20.37544990699618800000	    -75.77564755056157300000	    -18.43743149523759300000	     -0.00000000000006502365	      0.00000000000010872295	     47.03025261903932400000	    -12.63610021682626400000	    -36.17529127141833100000
      0.91483000000000048000	     -1.13611094533658590000	      0.66079202417386462000	      0.27347861256749412000	      6.91117123784636520000	      2.72380233037615890000	     -2.90356951564046950000	    -21.10468961231677200000	     -0.90695285838320627000	    -13.50778805154065200000	    -18.49476241781837900000	     19.79785048632856000000	     -0.00000000000038761834	      0.00000000000055481439	     16.92172399396720900000	      5.89346203245161340000	     -1.80090416872100770000	     -8.35021590516132410000	    -12.37701732140260400000	      0.00000000000001104107	      0.00000000000000138962	    -27.27754964089894300000	     -5.43091056485844440000	      6.47905118133541440000	      0.80960289612481917000	      0.07686589521182909900	     -0.09905290534156716000	    -37.17389575511165100000	     24.28662808832954300000	     28.06806439344757500000	      6.15928366725466870000	    -33.07710518669404800000	      1.46833621905890710000	    -53.81683289666008800000	    -85.72012135030141200000	     -0.00000000000155842641	      0.00000000000217261386	     15.41261227582271300000	     42.83129171725315800000	     19.22579179716528600000	    -75.46183428976239300000	    -16.97050052359944100000	     -0.00000000000005994109	      0.00000000000009340238	     47.26143983354622700000	    -12.58355850094144800000	    -35.63136566036416800000
      0.91533000000000053000	     -1.13570606638773590000	      0.66083069168653119000	      0.27342912681323434000	      6.89257750870408260000	      2.73591119644778980000	     -2.88958318882685280000	    -21.10151984705651500000	     -0.92350649462007495000	    -13.50702847874356200000	    -18.52177585069236800000	     19.75473774376876100000	     -0.00000000000038839397	      0.00000000000055588752	     16.92935251970996200000	      5.91478326217962640000	     -1.79157980060822040000	     -8.38786599084815170000	    -12.38513743336522800000	      0.00000000000001101511	      0.00000000000000143117	    -27.25386154285541800000	     -5.43718973410465800000	      6.46137276972717700000	      0.80991247645294984000	      0.07780320306776475300	     -0.09888854260320832600	    -37.20070325853407000000	     24.14860550150858000000	     27.87624309806469800000	      6.52004628099203920000	    -33.13777755721317700000	      1.56957060913562940000	    -54.23738800095038900000	    -86.73241586457325500000	     -0.00000000000155457148	      0.00000000000213470644	     15.10028595422446800000	     42.45321976396462600000	     18.07081918929155900000	    -75.13657766872920300000	    -15.51093786652290200000	     -0.00000000000006873412	      0.00000000000007139196	     47.49061079713163000000	    -12.53356284070715400000	    -35.08126929183831100000
      0.91583000000000048000	     -1.13530103329512430000	      0.66086982642737635000	      0.27337972559986701000	      6.87397085029139450000	      2.74795068976277430000	     -2.87569426511737580000	    -21.09816929400404800000	     -0.94009095496208239000	    -13.50621885840075700000	    -18.54900029919450000000	     19.71111671998099600000	     -0.00000000000038916894	      0.00000000000055694380	     16.93682307957047000000	      5.93591482317051170000	     -1.78283416833674830000	     -8.42535057199659220000	    -12.39252955503120100000	      0.00000000000001097918	      0.00000000000000146336	    -27.23005937623850100000	     -5.44344455229527120000	      6.44397091017586290000	      0.81021944636560850000	      0.07873481257957425100	     -0.09871473051886123200	    -37.22561647194040500000	     24.00910663183093900000	     27.67846676981376700000	      6.88244058188279780000	    -33.20036416618479800000	      1.66853969172323710000	    -54.66090286385338000000	    -87.75281042930228600000	     -0.00000000000154729244	      0.00000000000210341633	     14.78075808745114500000	     42.07257453157678400000	     16.91093494304326900000	    -74.79985750859262300000	    -14.05914809315718400000	     -0.00000000000007142268	      0.00000000000005575860	     47.71770458913081100000	    -12.48611496996174900000	    -34.52518509845452100000
